<?xml version="1.0" encoding="UTF-8"?>
<svg width="921px" height="1990px" viewBox="0 0 921 1990" version="1.1" xmlns="http://www.w3.org/2000/svg" xmlns:xlink="http://www.w3.org/1999/xlink">
    <!-- Generator: Sketch 52.6 (67491) - http://www.bohemiancoding.com/sketch -->
    <title>iphone-x-mask</title>
    <desc>Created with Sketch.</desc>
    <g id="Page-1" stroke="none" stroke-width="1" fill="none" fill-rule="evenodd">
        <path d="M0,1871.7533 C0,1894.96152 1.4736,1919.88522 12.08352,1940.15258 C21.8346188,1959.24584 38.3405219,1974.04819 58.40368,1981.6921 C78.8376,1989.75493 103.152,1990 118.502,1990 L802.498,1990 C817.77432,1990 842.1624,1989.75493 862.59632,1981.6921 C882.659478,1974.04819 899.165381,1959.24584 908.91648,1940.15258 C919.50184,1919.88522 921,1894.96152 921,1871.7533 L921,118.271204 C921,95.0629918 919.5264,70.139284 908.91648,49.8719228 C899.165381,30.7786672 882.659478,15.9763181 862.59632,8.3324097 C842.1624,0.269577961 817.848,0.0245070874 802.498,0.0245070874 L734.344,0.0245070874 C727.81104,0.0245070874 724.79016,1.47042524 722.50608,3.28394971 C719.412725,6.27288154 717.742304,10.4354815 717.91336,14.7287595 C717.91336,21.6642652 716.4152,34.5549932 712.6084,42.4462753 C707.656024,52.8776188 699.500288,61.4621806 689.32552,66.9533626 C680.499728,71.5648292 670.619565,73.795115 660.664,73.4232337 L260.336,73.4232337 C250.392567,73.7714474 240.530185,71.5244589 231.7236,66.9043485 C221.548832,61.4131665 213.393096,52.8286047 208.44072,42.3972611 C204.63392,34.505979 203.13576,21.615251 203.13576,14.6797453 C203.325342,10.4097431 201.692076,6.25967713 198.64128,3.25944262 C196.3572,1.44591815 193.33632,0 186.80336,0 L118.502,0 C103.22568,0 78.8376,0.245070874 58.40368,8.30790261 C38.3363236,15.9578106 21.8298182,30.7694331 12.08352,49.8719228 C1.4736,70.139284 0,95.0629918 0,118.271204 L0,1871.7533 Z" id="iphone-x-mask" fill="#1E1E1E"></path>
    </g>
</svg>